<?xml version="1.0" encoding="utf-8"?>
<!-- Generator: Adobe Illustrator 16.0.0, SVG Export Plug-In . SVG Version: 6.00 Build 0)  -->
<!DOCTYPE svg PUBLIC "-//W3C//DTD SVG 1.1//EN" "http://www.w3.org/Graphics/SVG/1.1/DTD/svg11.dtd">
<svg version="1.1" id="Layer_1" xmlns="http://www.w3.org/2000/svg" xmlns:xlink="http://www.w3.org/1999/xlink" x="0px" y="0px"
	 width="231.035px" height="143.678px" viewBox="0 0 231.035 143.678" enable-background="new 0 0 231.035 143.678"
	 xml:space="preserve">
<path fill="#FFFFFF" d="M217.246,135.653H45.398c-1.212,0-2.383-0.44-3.294-1.238c-32.074-28.092-32.074-31.872-32.074-34.13
	c0-2.269,0-5.693,36.396-41.766c1.955-1.937,5.108-1.931,7.055,0.016l12.082,12.081l14.119-14.12
	c0.938-0.938,2.209-1.464,3.536-1.464c1.327,0,2.598,0.527,3.536,1.464l15.767,15.768l15.215-15.216
	c0.938-0.938,2.209-1.464,3.535-1.464c0.002,0,0.004,0,0.006,0c1.328,0.001,2.601,0.531,3.537,1.471l15.539,15.598l20.151-20.085
	c0.937-0.934,2.206-1.458,3.529-1.458h17.129c7.917-13.88,19.515-25.218,33.698-32.906c1.551-0.839,3.427-0.802,4.941,0.1
	c1.514,0.901,2.441,2.534,2.441,4.296v108.053C222.246,133.415,220.008,135.653,217.246,135.653z M47.283,125.653h164.963V31.55
	c-9.938,6.936-18.04,16.103-23.689,26.881c-0.863,1.646-2.57,2.678-4.43,2.678h-18.025l-22.229,22.158
	c-0.938,0.936-2.207,1.459-3.53,1.459c-0.003,0-0.006,0-0.009,0c-1.326-0.002-2.599-0.531-3.533-1.472l-15.532-15.593l-15.21,15.209
	c-1.953,1.954-5.118,1.953-7.071,0L83.218,67.103L69.099,81.222c-1.953,1.953-5.118,1.953-7.071,0L49.939,69.135
	c-12.582,12.597-25.34,26.036-29.178,31.118C24.473,104.804,36.401,116.058,47.283,125.653z"/>
</svg>
