<?xml version="1.0" encoding="utf-8"?>
<!-- Generator: Adobe Illustrator 16.0.0, SVG Export Plug-In . SVG Version: 6.00 Build 0)  -->
<!DOCTYPE svg PUBLIC "-//W3C//DTD SVG 1.1//EN" "http://www.w3.org/Graphics/SVG/1.1/DTD/svg11.dtd">
<svg version="1.1" id="Layer_1" xmlns="http://www.w3.org/2000/svg" xmlns:xlink="http://www.w3.org/1999/xlink" x="0px" y="0px"
	 width="231.035px" height="143.678px" viewBox="0 0 231.035 143.678" enable-background="new 0 0 231.035 143.678"
	 xml:space="preserve">
<path fill="#FFFFFF" d="M10.029,130.653V22.6c0-1.762,0.928-3.395,2.441-4.296c1.514-0.902,3.39-0.939,4.941-0.1
	c14.183,7.688,25.78,19.026,33.697,32.906h17.129c1.323,0,2.592,0.524,3.529,1.458l20.15,20.085l15.539-15.598
	c0.937-0.94,2.209-1.47,3.537-1.471c0.002,0,0.004,0,0.006,0c1.326,0,2.598,0.526,3.535,1.464l15.215,15.216l15.768-15.768
	c0.938-0.937,2.209-1.464,3.536-1.464s2.598,0.526,3.536,1.464l14.119,14.12l12.082-12.081c1.946-1.947,5.1-1.953,7.055-0.016
	c36.396,36.073,36.396,39.498,36.396,41.766c0,2.258,0,6.038-32.074,34.13c-0.912,0.798-2.082,1.238-3.295,1.238H15.025
	C12.264,135.653,10.025,133.415,10.029,130.653z M211.51,100.253c-3.838-5.082-16.596-18.521-29.178-31.118l-12.088,12.087
	c-1.953,1.953-5.119,1.953-7.072,0l-14.118-14.119L133.283,82.87c-1.953,1.953-5.117,1.954-7.07,0l-15.211-15.209L95.471,83.254
	c-0.934,0.94-2.207,1.47-3.533,1.472c-0.003,0-0.006,0-0.009,0c-1.323,0-2.593-0.522-3.53-1.459L66.17,61.109H48.145
	c-1.859,0-3.566-1.032-4.43-2.678C38.065,47.653,29.963,38.486,20.025,31.55v94.104h164.963
	C195.871,116.058,207.799,104.804,211.51,100.253z"/>
</svg>
