<?xml version="1.0" encoding="utf-8"?>
<!-- Generator: Adobe Illustrator 16.0.0, SVG Export Plug-In . SVG Version: 6.00 Build 0)  -->
<!DOCTYPE svg PUBLIC "-//W3C//DTD SVG 1.1//EN" "http://www.w3.org/Graphics/SVG/1.1/DTD/svg11.dtd">
<svg version="1.1" id="Layer_1" xmlns="http://www.w3.org/2000/svg" xmlns:xlink="http://www.w3.org/1999/xlink" x="0px" y="0px"
	 width="18px" height="22px" viewBox="3.417 1 18 22" enable-background="new 3.417 1 18 22" xml:space="preserve">
<path d="M16.417,6v11.5c0,2.21-1.79,4-4,4s-4-1.79-4-4V5c0-1.38,1.12-2.5,2.5-2.5s2.5,1.12,2.5,2.5v10.5c0,0.55-0.45,1-1,1
	s-1-0.45-1-1V6h-1.5v9.5c0,1.38,1.12,2.5,2.5,2.5s2.5-1.12,2.5-2.5V5c0-2.21-1.79-4-4-4s-4,1.79-4,4v12.5c0,3.04,2.46,5.5,5.5,5.5
	s5.5-2.46,5.5-5.5V6H16.417z"/>
</svg>
