<?xml version="1.0" encoding="utf-8"?>
<!-- Generator: Adobe Illustrator 16.0.0, SVG Export Plug-In . SVG Version: 6.00 Build 0)  -->
<!DOCTYPE svg PUBLIC "-//W3C//DTD SVG 1.1//EN" "http://www.w3.org/Graphics/SVG/1.1/DTD/svg11.dtd">
<svg version="1.1" id="Layer_1" xmlns="http://www.w3.org/2000/svg" xmlns:xlink="http://www.w3.org/1999/xlink" x="0px" y="0px"
	 width="660.031px" height="164.071px" viewBox="0 0 660.031 164.071" enable-background="new 0 0 660.031 164.071"
	 xml:space="preserve">
<g>
	<path fill="#141414" d="M68.601,84.095c-13.548,0-24.575-11.027-24.575-24.574c0-13.549,11.027-24.68,24.575-24.68
		s24.575,11.027,24.575,24.575S82.149,84.095,68.601,84.095z M68.601,43.242c-8.927,0-16.278,7.247-16.278,16.279
		c0,9.032,7.352,16.172,16.278,16.172S84.88,68.447,84.88,59.415S77.528,43.242,68.601,43.242z"/>
	<path fill="#141414" d="M103.153,118.543c-2.311,0-4.201-1.892-4.201-4.201c0-16.699-13.548-30.352-30.351-30.352
		S38.25,97.643,38.25,114.342c0,2.31-1.89,4.201-4.201,4.201s-4.201-1.892-4.201-4.201c0-21.32,17.328-38.649,38.648-38.649
		c21.319,0,38.647,17.329,38.647,38.649C107.249,116.651,105.463,118.543,103.153,118.543z"/>
</g>
<line fill="none" stroke="#232323" stroke-width="3" stroke-linecap="round" stroke-linejoin="round" stroke-dasharray="0,8" x1="137.593" y1="89.664" x2="495.593" y2="89.664"/>
<g>
	<g>
		<g>
			<rect x="520.602" y="121.08" fill="#141414" width="114.851" height="6.381"/>
		</g>
	</g>
	<g>
		<g>
			<polygon fill="#141414" points="597.169,38.133 597.169,64.932 617.857,64.932 617.857,70.036 597.169,70.036 597.169,81.521 
				617.857,81.521 617.857,86.625 597.169,86.625 597.169,98.111 617.857,98.111 617.857,103.215 597.169,103.215 597.169,121.08 
				629.071,121.08 629.071,38.133 			"/>
		</g>
	</g>
	<g>
		<g>
			<path fill="#141414" d="M526.982,12.611V121.08h20.419v-20.418h25.521v20.418h19.142V12.611H526.982z M578.026,86.625h-37.006
				V76.416h37.006V86.625z M578.026,64.932h-37.006V54.723h37.006V64.932z M578.026,43.237h-37.006V33.028h37.006V43.237z"/>
		</g>
	</g>
</g>
</svg>
